<svg width="46" height="38" viewBox="0 0 46 38" fill="none" xmlns="http://www.w3.org/2000/svg">
<path d="M43 16.5C44.3807 16.5 45.5 17.6193 45.5 19C45.5 20.3807 44.3807 21.5 43 21.5V16.5ZM1.23223 20.7678C0.255922 19.7915 0.255922 18.2085 1.23223 17.2322L17.1421 1.32233C18.1184 0.34602 19.7014 0.34602 20.6777 1.32233C21.654 2.29864 21.654 3.88155 20.6777 4.85786L6.53553 19L20.6777 33.1421C21.654 34.1184 21.654 35.7014 20.6777 36.6777C19.7014 37.654 18.1184 37.654 17.1421 36.6777L1.23223 20.7678ZM43 21.5H3V16.5H43V21.5Z" fill="#393937"/>
</svg>
